<svg width="180" height="46" xmlns="http://www.w3.org/2000/svg" version="1.1" style="enable-background:new 0 0 180 46;" xml:space="preserve">
 <style type="text/css">.st0{fill:#85CDF0;}
	.st1{fill:#0097E0;}
	.st2{fill:#282828;}</style>
 <g>
  <title>background</title>
  <rect x="-1" y="-1" width="182" height="48" id="canvas_background" fill="none"/>
 </g>
 <g>
  <title>Layer 1</title>
  <defs>
   <style type="text/css">@font-face { font-family: feedback-iconfont; src: url("//at.alicdn.com/t/font_1031158_u69w8yhxdu.woff2?t=1630033759944") format("woff2"), url("//at.alicdn.com/t/font_1031158_u69w8yhxdu.woff?t=1630033759944") format("woff"), url("//at.alicdn.com/t/font_1031158_u69w8yhxdu.ttf?t=1630033759944") format("truetype"); }</style>
  </defs>
  <rect stroke="null" fill="#1296db" stroke-width="0" stroke-opacity="null" fill-opacity="null" x="0.999993" y="2.5" width="73.999977" height="41" id="svg_87" opacity="0.1"/>
  <g stroke="null" id="svg_35">
   <path stroke="null" d="m46.014346,19.90881l-2.006991,0c-0.689741,-1.347106 -1.637055,-2.783849 -2.504849,-3.990099l-0.072604,-0.097319c-0.050132,-0.07427 -0.264487,-0.391839 -0.586021,-0.83746c-1.01646,-1.411132 -2.37347,-3.10654 -3.509209,-3.903023l1.415784,0c1.153026,0 2.08651,-1.382961 2.08651,-3.091174c0,-1.705652 -0.933484,-3.091174 -2.08651,-3.091174l-5.42458,0c-1.151297,0 -2.08651,1.385522 -2.08651,3.091174c0,1.708213 0.935213,3.091174 2.08651,3.091174l1.682,0c-1.576551,0.965512 -3.31214,3.32679 -4.15919,4.58426c-0.700113,0.909169 -1.860053,2.543112 -2.693275,4.243642l-2.169487,0c-1.153026,0 -2.08651,1.385522 -2.08651,3.091174s0.933484,3.091174 2.08651,3.091174l2.100339,0c0.630966,1.226738 1.476288,2.502135 2.214432,3.521429c0.321533,0.450743 0.551447,0.750384 0.606765,0.819532l0.070876,0.099881c1.194514,1.654431 2.708833,3.547039 3.929276,4.38706l-1.790907,0c-1.151297,0 -2.084782,1.385522 -2.084782,3.091174s0.933484,3.091174 2.084782,3.091174l5.842919,0c1.151297,0 2.08651,-1.385522 2.08651,-3.091174s-0.935213,-3.091174 -2.08651,-3.091174l-1.911914,0c1.457273,-0.998805 3.332885,-3.495818 4.205865,-4.7328c0.644796,-0.880997 1.771892,-2.502135 2.622399,-4.097662l2.13837,0c1.153026,0.002561 2.08651,-1.3804 2.08651,-3.088613s-0.933484,-3.091174 -2.08651,-3.091174l0,-0.000002zm-12.68847,-10.108421c-0.674183,0 -1.222173,-0.811849 -1.222173,-1.810655s0.54799,-1.810655 1.222173,-1.810655l5.42458,0c0.674183,0 1.222173,0.811849 1.222173,1.810655s-0.549719,1.810655 -1.222173,1.810655l-5.42458,0zm5.63375,26.399189c0.674183,0 1.222173,0.811849 1.222173,1.810655s-0.54799,1.810655 -1.222173,1.810655l-5.842919,0c-0.672454,0 -1.220444,-0.811849 -1.220444,-1.810655s0.54799,-1.810655 1.220444,-1.810655l5.842919,0zm-12.973701,-11.38894c-0.674183,0 -1.222173,-0.811849 -1.222173,-1.810655s0.54799,-1.810655 1.222173,-1.810655l5.42458,0c0.674183,0 1.222173,0.811849 1.222173,1.810655s-0.549719,1.810655 -1.222173,1.810655l-5.42458,0zm14.728305,4.627797c0,0 -3.415861,4.83268 -4.696808,4.865974c-1.163398,0.030732 -3.988052,-3.810826 -4.499739,-4.522795c-0.051861,-0.07427 -0.081247,-0.115247 -0.081247,-0.115247s-0.240286,-0.309886 -0.596393,-0.799044c-0.492672,-0.686358 -1.1997,-1.721018 -1.797821,-2.776166l2.368284,0c1.151297,0 2.08651,-1.385522 2.08651,-3.091174s-0.935213,-3.091174 -2.08651,-3.091174l-2.306051,0c0.976701,-1.7748 2.214432,-3.403621 2.283578,-3.493257c0.110635,-0.163906 3.562798,-5.283423 5.11169,-4.673896c1.132281,0.44306 2.898987,2.73519 3.803084,3.99266c0.354379,0.494281 0.577377,0.827216 0.577377,0.827216s0.029388,0.035855 0.081247,0.110125c0.285231,0.396961 1.270576,1.80041 2.084782,3.239714l-2.456446,0c-1.151297,-0.002561 -2.08651,1.382961 -2.08651,3.088613s0.935213,3.091174 2.08651,3.091174l2.312966,0c-0.995717,1.710774 -2.188502,3.347278 -2.188502,3.347278l0,-0.000001zm5.300115,-4.627797l-5.42458,0c-0.674183,0 -1.222173,-0.811849 -1.222173,-1.810655s0.54799,-1.810655 1.222173,-1.810655l5.42458,0c0.674183,0 1.222173,0.811849 1.222173,1.810655s-0.54799,1.810655 -1.222173,1.810655z" p-id="4226" fill="#1296db" id="svg_34"/>
  </g>
  <defs>
   <style type="text/css">@font-face { font-family: feedback-iconfont; src: url("//at.alicdn.com/t/font_1031158_u69w8yhxdu.woff2?t=1630033759944") format("woff2"), url("//at.alicdn.com/t/font_1031158_u69w8yhxdu.woff?t=1630033759944") format("woff"), url("//at.alicdn.com/t/font_1031158_u69w8yhxdu.ttf?t=1630033759944") format("truetype"); }</style>
  </defs>
  <defs>
   <style type="text/css">@font-face { font-family: feedback-iconfont; src: url("//at.alicdn.com/t/font_1031158_u69w8yhxdu.woff2?t=1630033759944") format("woff2"), url("//at.alicdn.com/t/font_1031158_u69w8yhxdu.woff?t=1630033759944") format("woff"), url("//at.alicdn.com/t/font_1031158_u69w8yhxdu.ttf?t=1630033759944") format("truetype"); }</style>
  </defs>
  <defs>
   <style type="text/css">@font-face { font-family: feedback-iconfont; src: url("//at.alicdn.com/t/font_1031158_u69w8yhxdu.woff2?t=1630033759944") format("woff2"), url("//at.alicdn.com/t/font_1031158_u69w8yhxdu.woff?t=1630033759944") format("woff"), url("//at.alicdn.com/t/font_1031158_u69w8yhxdu.ttf?t=1630033759944") format("truetype"); }</style>
  </defs>
  <g stroke="null" id="svg_73">
   <path stroke="null" d="m16.931992,15.770249l0.961108,0l0,-3.140766l-2.401955,0a2.401955,2.243187 0 0 0 -4.804725,0l-2.401955,0l0,3.140766l8.647525,0l0.000001,0zm-7.686417,-2.243187l2.401955,0l0,-0.897579a1.441662,1.34637 0 0 1 2.883324,0l0,0.897579l2.401139,0l0,1.345607l-7.686417,0l0,-1.345607zm-4.803909,19.292627l17.293419,0l0,0.448028l-17.293419,0l0,-0.448028z" p-id="4878" fill="#1296db" id="svg_69"/>
   <path stroke="null" d="m18.853391,13.527063l0,0.897579l3.363063,0l0,19.292627l-18.255343,0l0,-19.292627l3.363063,0l0,-0.897579l-4.32417,0l0,21.087024l20.177559,0l0,-21.087024l-4.32417,0l-0.000001,0z" p-id="4879" fill="#1296db" id="svg_70"/>
   <path stroke="null" d="m13.089191,19.808595a4.32417,4.038346 0 0 1 4.215659,3.140005l-1.334782,0l0,0.897579l2.40277,0l1.311937,-2.242425l-0.832199,-0.44879l-0.731846,1.183312a5.285279,4.935926 0 0 0 -10.316818,1.507903l0.960292,0a4.32417,4.038346 0 0 1 4.324986,-4.037584l0,-0.000001zm-5.893926,7.714765l0.833831,-1.349417a5.28691,4.93745 0 0 0 5.059279,3.50498a5.284463,4.935164 0 0 0 5.284463,-4.935164l-0.961108,0a4.32417,4.038346 0 0 1 -8.539829,0.897579l1.33315,0l0,-0.897579l-2.400323,0l-1.441662,2.332336l0.832199,0.447265z" p-id="4880" fill="#1296db" id="svg_71"/>
   <path stroke="null" d="m13.19036,24.575368l0,1.978027l-0.432417,0l0,-1.978027l-2.116396,0l0,-0.403072l2.116396,0l0,-1.976503l0.432417,0l0,1.975742l2.112317,0l0,0.403072l-2.112317,0l0,0.000762z" p-id="4881" fill="#1296db" id="svg_72"/>
  </g>
  <text font-weight="bold" style="cursor: move;" fill="#1296db" stroke="null" stroke-width="0" x="77.499974" y="31.5" id="svg_74" font-size="24" font-family="'Trebuchet MS', Gadget, sans-serif" text-anchor="start" xml:space="preserve">TongCS</text>
  <defs>
   <style type="text/css">@font-face { font-family: feedback-iconfont; src: url("//at.alicdn.com/t/font_1031158_u69w8yhxdu.woff2?t=1630033759944") format("woff2"), url("//at.alicdn.com/t/font_1031158_u69w8yhxdu.woff?t=1630033759944") format("woff"), url("//at.alicdn.com/t/font_1031158_u69w8yhxdu.ttf?t=1630033759944") format("truetype"); }</style>
  </defs>
  <defs>
   <style type="text/css">@font-face { font-family: feedback-iconfont; src: url("//at.alicdn.com/t/font_1031158_u69w8yhxdu.woff2?t=1630033759944") format("woff2"), url("//at.alicdn.com/t/font_1031158_u69w8yhxdu.woff?t=1630033759944") format("woff"), url("//at.alicdn.com/t/font_1031158_u69w8yhxdu.ttf?t=1630033759944") format("truetype"); }</style>
  </defs>
  <g stroke="null" id="svg_86">
   <path stroke="null" d="m51.169809,10.994911c0.40761,-0.378982 0.885095,-0.583418 1.364407,-0.588572c4.794722,0.000344 9.589672,0 14.384622,0c0.373357,0.006529 0.752651,-0.036765 1.1187,0.101016c0.733012,0.247042 1.38062,0.991605 1.737079,1.985271c0.214651,0.586854 0.32152,1.256514 0.323804,1.925486c0.000685,5.09615 0,10.192299 0.000228,15.288791c-0.001598,0.506454 0.014614,1.01978 -0.058687,1.518331c-0.155737,1.150001 -0.671813,2.16978 -1.362352,2.712311c-0.398475,0.318509 -0.851755,0.470721 -1.302067,0.460412c-2.281472,-0.001031 -4.562944,0.000344 -6.844416,-0.000688c-0.002055,1.19879 0.002055,2.397582 -0.002055,3.596372c2.061568,0.007558 4.123365,0.000688 6.185161,0.003436c0.152768,-0.000344 0.303024,0.106169 0.400988,0.282432c0.120799,0.206499 0.154594,0.511607 0.097735,0.770675c-0.05549,0.260785 -0.208943,0.467628 -0.386601,0.524665c-0.082207,0.029205 -0.167154,0.017867 -0.250503,0.019584c-4.430042,-0.000344 -8.860085,0.000344 -13.290356,-0.000344c-0.152312,0.000344 -0.302339,-0.105483 -0.400531,-0.280715c-0.116688,-0.198939 -0.152312,-0.489275 -0.105042,-0.741814c0.048182,-0.263192 0.195242,-0.477935 0.37016,-0.546997c0.088601,-0.038482 0.181769,-0.0268 0.272881,-0.027831l6.045638,0c0.000228,-1.199821 0.000228,-2.399299 0.000228,-3.599121c-2.2817,0.000344 -4.563629,-0.000344 -6.845329,0.000344c-0.416287,0.008933 -0.835085,-0.118883 -1.210726,-0.391694c-0.650577,-0.465223 -1.164142,-1.345504 -1.382447,-2.379028c-0.089286,-0.408187 -0.126964,-0.838363 -0.129476,-1.266823c-0.000228,-5.08481 0,-10.169622 0,-15.254776c0.002055,-0.494084 -0.014843,-0.993666 0.052293,-1.48088c0.138153,-1.080939 0.59189,-2.05777 1.216664,-2.62985m1.123267,1.04383c-0.549189,0.136062 -1.033296,0.737003 -1.22534,1.523484c-0.097963,0.369361 -0.110751,0.772051 -0.105042,1.165119l0,15.152729c0.000457,0.390664 -0.012787,0.790261 0.063025,1.169241c0.146374,0.796446 0.584811,1.450644 1.115274,1.663326c0.275622,0.120258 0.564944,0.080744 0.847874,0.087273c4.780107,0 9.560443,-0.000344 14.34055,0.000344c0.198438,0.006185 0.398932,-0.02199 0.588465,-0.114073c0.486619,-0.227458 0.886922,-0.826681 1.03969,-1.558188c0.092255,-0.401658 0.079466,-0.831836 0.079238,-1.249986l0,-14.979903c-0.00137,-0.263192 0.006394,-0.527413 -0.015071,-0.789574c-0.049324,-0.609531 -0.262834,-1.184703 -0.581386,-1.568495c-0.27859,-0.341186 -0.635506,-0.533942 -0.994705,-0.536347c-4.971239,0.000688 -9.942477,-0.000344 -14.913715,0.000688c-0.080152,0.002405 -0.160075,0.014431 -0.238857,0.034358l0,0.000002z" p-id="30131" fill="#1296db" id="svg_84"/>
   <path stroke="null" d="m56.493395,15.331037c0.323576,-0.006872 0.64738,-0.000688 0.971184,-0.002749c0.129248,0.002749 0.259409,-0.009965 0.388428,0.014431c0.357372,0.061159 0.698988,0.313356 0.948805,0.702988c0.285898,0.428802 0.448713,1.030775 0.455335,1.636526c0.00137,0.526382 -0.000228,1.052764 0.000685,1.579491c0.002055,0.298581 -0.027174,0.599224 -0.095452,0.880625c-0.15665,0.65729 -0.515392,1.19776 -0.952916,1.431746c-0.193643,0.107888 -0.401444,0.149463 -0.60719,0.145339c-0.32723,-0.000688 -0.654459,-0.000344 -0.98146,0c-0.477257,0.010651 -0.950861,-0.318853 -1.251373,-0.877189c-0.225841,-0.412311 -0.356687,-0.941441 -0.359427,-1.476412c0.000228,-0.538751 0.000457,-1.077159 -0.000228,-1.615567c-0.007764,-0.556962 0.122397,-1.114955 0.357601,-1.544443c0.272881,-0.510234 0.691909,-0.833553 1.126007,-0.874784m0.018954,1.60526c-0.245251,0.05841 -0.444146,0.403719 -0.440264,0.779265c0,0.538064 0,1.076471 -0.000228,1.614537c-0.000457,0.290678 0.11646,0.572768 0.289779,0.700927c0.106641,0.087959 0.231093,0.095175 0.349836,0.090709c0.327686,-0.003436 0.655601,0.004466 0.983287,-0.003436c0.260551,-0.016835 0.48936,-0.35871 0.498722,-0.751779c0.005709,-0.516075 0,-1.032836 0.00274,-1.549255c0.002055,-0.156333 -0.010733,-0.317478 -0.06097,-0.456634c-0.088372,-0.271438 -0.287724,-0.4477 -0.48799,-0.435331c-0.378152,0.008246 -0.757446,-0.013399 -1.134913,0.010994l0,0.000002zm5.506726,-1.605947c0.384546,-0.005153 0.768864,0 1.15341,-0.002749c0.303252,-0.006529 0.606277,0.126785 0.861803,0.371766c0.431815,0.408874 0.717027,1.14416 0.735753,1.912431c0.005709,0.538751 0.000228,1.077503 0.002512,1.616254c0.003425,0.344278 -0.03197,0.692336 -0.121483,1.010503c-0.183367,0.681342 -0.588465,1.21494 -1.061612,1.399448c-0.306449,0.125411 -0.626371,0.068375 -0.939672,0.081088c-0.343899,-0.012713 -0.698531,0.0536 -1.030099,-0.119226c-0.607647,-0.287585 -1.064352,-1.171304 -1.092896,-2.13061c-0.004567,-0.572768 0,-1.145877 -0.002284,-1.718645c-0.007764,-0.568988 0.127649,-1.139005 0.372672,-1.572275c0.275393,-0.498552 0.69168,-0.812594 1.121897,-0.847984m-0.02352,1.615567c-0.239542,0.080744 -0.422681,0.433956 -0.409208,0.804692c0.001598,0.538408 -0.000685,1.077159 0.001141,1.615567c0.007992,0.400627 0.245251,0.743532 0.509911,0.752809c0.305536,0.005841 0.611072,0.000688 0.916608,0.002405c0.128563,0.002061 0.263291,0.01237 0.382719,-0.073528c0.183596,-0.12438 0.311017,-0.412997 0.313071,-0.716731c0.000913,-0.538751 0.001141,-1.077503 0,-1.616254c0,-0.398222 -0.221502,-0.763117 -0.487076,-0.786481c-0.343671,-0.006185 -0.687342,0.000344 -1.031013,-0.003092c-0.065766,-0.000344 -0.131988,-0.002405 -0.196155,0.020615l0.000001,0zm0.544621,5.591952c0.426106,-0.043979 0.861575,0.180729 1.176702,0.615716c0.268771,0.396505 0.532519,0.801256 0.800148,1.199821c0.252786,0.371422 0.417657,0.874784 0.461957,1.401853c0.066222,0.749716 -0.117602,1.538259 -0.487762,2.052272c-0.232691,0.349433 -0.465383,0.699208 -0.697618,1.049671c-0.340702,0.544936 -0.858606,0.81225 -1.350706,0.715014c-0.350293,-0.066657 -0.684602,-0.314386 -0.931451,-0.694743c-0.258038,-0.390664 -0.518132,-0.778579 -0.776171,-1.169241c-0.282473,-0.445294 -0.441634,-1.061697 -0.433642,-1.677071c0.001598,-0.609531 0.168981,-1.211503 0.452367,-1.646147c0.259181,-0.389633 0.518132,-0.779265 0.777084,-1.169241c0.268543,-0.397192 0.633222,-0.642516 1.009091,-0.677906m-0.00137,1.610069c-0.09979,0.033329 -0.194556,0.107201 -0.265803,0.218867c-0.25781,0.39032 -0.517904,0.777548 -0.775486,1.168555c-0.186336,0.296863 -0.17606,0.812594 0.023977,1.089872c0.260094,0.388259 0.517676,0.78064 0.777998,1.168555c0.158705,0.224022 0.41446,0.259068 0.602166,0.099298c0.087003,-0.072155 0.153453,-0.185196 0.2231,-0.289304c0.182226,-0.274186 0.364451,-0.548372 0.546676,-0.822215c0.068734,-0.104452 0.143634,-0.204436 0.191359,-0.335001c0.095908,-0.253571 0.087003,-0.588916 -0.023749,-0.828743c-0.038135,-0.081088 -0.087459,-0.1474 -0.133586,-0.216806c-0.232463,-0.349433 -0.464698,-0.699208 -0.696932,-1.048985c-0.120571,-0.181416 -0.303709,-0.256663 -0.469721,-0.204093l0.000001,-0.000002zm-6.181736,-1.25239c0.07216,-0.017179 0.145461,-0.026113 0.218762,-0.025769c0.371987,0.000688 0.743973,0.000344 1.11596,0c0.331111,0.00378 0.659939,0.17317 0.924829,0.472438c0.287268,0.322289 0.500549,0.792666 0.588693,1.315955c0.081065,0.447357 0.043844,0.914985 0.052293,1.372304c-0.009819,0.511607 0.035395,1.037989 -0.068963,1.53448c-0.157563,0.799537 -0.613355,1.444803 -1.154094,1.629655c-0.230408,0.087273 -0.469721,0.063221 -0.705153,0.066314c-0.244109,-0.000344 -0.488446,0.000344 -0.732556,0c-0.309646,-0.002749 -0.618836,-0.140185 -0.876418,-0.399941c-0.37427,-0.371422 -0.636876,-0.989544 -0.695791,-1.659548c-0.02078,-0.193786 -0.013473,-0.39032 -0.014386,-0.585823c-0.000228,-0.470033 0.000228,-0.939722 -0.000228,-1.409757c0.005481,-0.539095 0.139752,-1.072693 0.37153,-1.483972c0.243652,-0.441859 0.598056,-0.740439 0.975523,-0.826337m0.089286,1.606291c-0.211226,0.095175 -0.372215,0.405438 -0.374042,0.739409c-0.000457,0.55009 -0.000457,1.100181 0,1.65027c0.002284,0.402002 0.23703,0.754184 0.502605,0.768614c0.357372,0.006872 0.7152,0.001031 1.072801,0.003092c0.146831,0.001717 0.29526,-0.08418 0.39642,-0.246355c0.104814,-0.154616 0.155051,-0.378638 0.151855,-0.597161c-0.001598,-0.527413 0.002055,-1.054826 -0.001598,-1.582239c-0.005937,-0.39891 -0.234062,-0.756589 -0.500778,-0.768614c-0.342757,-0.002749 -0.685286,0.000688 -1.028044,-0.001717c-0.07353,-0.001375 -0.148658,-0.000344 -0.219219,0.034702l-0.000001,-0.000002z" p-id="30132" fill="#1296db" id="svg_85"/>
  </g>
 </g>
</svg>